<svg width="203" height="49" viewBox="0 0 203 49" fill="none" xmlns="http://www.w3.org/2000/svg">
<rect width="16.3333" height="16.3333" fill="#DE9E41"/>
<rect x="16.3333" y="16.3333" width="16.3333" height="16.3333" fill="#DE9E41"/>
<rect x="32.6667" y="32.6667" width="16.3333" height="16.3333" fill="#DE9E41"/>
<rect x="32.6667" width="16.3333" height="16.3333" fill="#DE9E41"/>
<rect y="32.6667" width="16.3333" height="16.3333" fill="#DE9E41"/>
<path d="M71.6 7.6H82.95C85.3833 7.6 87.2167 8.03333 88.45 8.9C89.7167 9.76666 90.5667 11.0333 91 12.7C91.4333 14.3333 91.65 16.5167 91.65 19.25C91.65 21.8833 91.45 24.0333 91.05 25.7C90.65 27.3333 89.8167 28.6333 88.55 29.6C87.2833 30.5333 85.4 31 82.9 31H78.5V42H71.6V7.6ZM81.2 24.95C82.3333 24.95 83.1333 24.8167 83.6 24.55C84.0667 24.2833 84.3667 23.7833 84.5 23.05C84.6667 22.2833 84.75 21.0167 84.75 19.25C84.75 17.4833 84.6667 16.2333 84.5 15.5C84.3667 14.7667 84.0667 14.2833 83.6 14.05C83.1667 13.7833 82.3833 13.65 81.25 13.65H78.5V24.95H81.2ZM95.3305 42V7.6H112.03V13.65H102.23V21.6H110.68V27.65H102.23V35.95H112.03V42H95.3305ZM116.375 7.6H128.175C130.875 7.6 132.892 8.31667 134.225 9.75C135.592 11.1833 136.275 13.35 136.275 16.25C136.275 18.6833 135.909 20.55 135.175 21.85C134.442 23.1167 133.292 23.95 131.725 24.35V24.55C133.459 24.9833 134.692 25.8167 135.425 27.05C136.192 28.2833 136.575 30.2 136.575 32.8C136.575 35.8333 135.925 38.1333 134.625 39.7C133.325 41.2333 131.175 42 128.175 42H116.375V7.6ZM126.325 21.65C127.192 21.65 127.842 21.55 128.275 21.35C128.742 21.15 129.059 20.7667 129.225 20.2C129.425 19.6333 129.525 18.7833 129.525 17.65C129.525 16.45 129.442 15.5833 129.275 15.05C129.109 14.4833 128.809 14.1167 128.375 13.95C127.942 13.75 127.259 13.65 126.325 13.65H123.175V21.65H126.325ZM126.475 35.95C127.409 35.95 128.092 35.85 128.525 35.65C128.959 35.45 129.259 35.0667 129.425 34.5C129.592 33.9333 129.675 33.0333 129.675 31.8C129.675 30.5667 129.592 29.6667 129.425 29.1C129.259 28.5 128.942 28.1 128.475 27.9C128.042 27.7 127.375 27.6 126.475 27.6H123.175V35.95H126.475ZM140.789 7.6H152.589C155.289 7.6 157.306 8.31667 158.639 9.75C160.006 11.1833 160.689 13.35 160.689 16.25C160.689 18.6833 160.323 20.55 159.589 21.85C158.856 23.1167 157.706 23.95 156.139 24.35V24.55C157.873 24.9833 159.106 25.8167 159.839 27.05C160.606 28.2833 160.989 30.2 160.989 32.8C160.989 35.8333 160.339 38.1333 159.039 39.7C157.739 41.2333 155.589 42 152.589 42H140.789V7.6ZM150.739 21.65C151.606 21.65 152.256 21.55 152.689 21.35C153.156 21.15 153.473 20.7667 153.639 20.2C153.839 19.6333 153.939 18.7833 153.939 17.65C153.939 16.45 153.856 15.5833 153.689 15.05C153.523 14.4833 153.223 14.1167 152.789 13.95C152.356 13.75 151.673 13.65 150.739 13.65H147.589V21.65H150.739ZM150.889 35.95C151.823 35.95 152.506 35.85 152.939 35.65C153.373 35.45 153.673 35.0667 153.839 34.5C154.006 33.9333 154.089 33.0333 154.089 31.8C154.089 30.5667 154.006 29.6667 153.839 29.1C153.673 28.5 153.356 28.1 152.889 27.9C152.456 27.7 151.789 27.6 150.889 27.6H147.589V35.95H150.889ZM165.204 42V7.6H172.104V35.75H180.804V42H165.204ZM184.149 42V7.6H200.849V13.65H191.049V21.6H199.499V27.65H191.049V35.95H200.849V42H184.149Z" fill="#EBEDE9"/>
</svg>